# MagicaVoxel @ Ephtracy

# group
o 

# material
mtllib Tijeras2.mtl
usemtl palette

# normals
vn -1 0 0
vn 1 0 0
vn 0 0 1
vn 0 0 -1
vn 0 -1 0
vn 0 1 0

# texcoords
vt 0.388672 0.5
vt 0.416016 0.5
vt 0.935547 0.5
vt 0.958984 0.5

# verts
v -0.4 0 -0.2
v -0.4 0 -0.7
v -0.4 0.1 -0.2
v -0.4 0.1 -0.7
v -0.3 0 0.0999999
v -0.3 0 -0.2
v -0.3 0 -0.7
v -0.3 0 -0.8
v -0.3 0.1 0.0999999
v -0.3 0.1 -0.2
v -0.3 0.1 -0.7
v -0.3 0.1 -0.8
v -0.2 0 0.2
v -0.2 0 0.0999999
v -0.2 0.1 0.2
v -0.2 0.1 0.0999999
v 0 0 0.3
v 0 0 0.2
v 0 0.1 0.3
v 0 0.1 0.2
v 0.1 0 0.4
v 0.1 0 0.3
v 0.1 0.1 0.4
v 0.1 0.1 0.3
v 0.2 0 0.7
v 0.2 0 0.4
v 0.2 0.1 0.7
v 0.2 0.1 0.4
v 0.3 0 1
v 0.3 0 0.7
v 0.3 0.1 1
v 0.3 0.1 0.7
v -0.2 0 -0.3
v -0.2 0 -0.8
v -0.2 0.1 -0.3
v -0.2 0.1 -0.8
v -0.1 0 0.0999999
v -0.1 0 -0.3
v -0.1 0.1 0.0999999
v -0.1 0.1 -0.3
v 0 0 0.2
v 0 0 0.0999999
v 0 0.1 0.2
v 0 0.1 0.0999999
v 0.1 0 0.3
v 0.1 0 0.2
v 0.1 0.1 0.3
v 0.1 0.1 0.2
v 0.2 0 0.4
v 0.2 0 0.3
v 0.2 0.1 0.4
v 0.2 0.1 0.3
v 0.3 0 0.7
v 0.3 0 0.4
v 0.3 0.1 0.7
v 0.3 0.1 0.4
v 0.4 0 1
v 0.4 0 0.7
v 0.4 0.1 1
v 0.4 0.1 0.7
v 0.3 0 1
v 0.3 0.1 1
v 0.4 0 1
v 0.4 0.1 1
v 0.2 0 0.7
v 0.2 0.1 0.7
v 0.3 0 0.7
v 0.3 0.1 0.7
v 0.1 0 0.4
v 0.1 0.1 0.4
v 0.2 0 0.4
v 0.2 0.1 0.4
v 0 0 0.3
v 0 0.1 0.3
v 0.1 0 0.3
v 0.1 0.1 0.3
v -0.2 0 0.2
v -0.2 0.1 0.2
v -0.1 0 0.2
v -0.1 0.1 0.2
v 0 0 0.2
v 0 0.1 0.2
v -0.3 0 0.0999999
v -0.3 0.1 0.0999999
v -0.2 0 0.0999999
v -0.2 0.1 0.0999999
v -0.4 0 -0.2
v -0.4 0.1 -0.2
v -0.3 0 -0.2
v -0.3 0.1 -0.2
v 0.3 0 0.7
v 0.3 0.1 0.7
v 0.4 0 0.7
v 0.4 0.1 0.7
v 0.2 0 0.4
v 0.2 0.1 0.4
v 0.3 0 0.4
v 0.3 0.1 0.4
v 0.1 0 0.3
v 0.1 0.1 0.3
v 0.2 0 0.3
v 0.2 0.1 0.3
v 0 0 0.2
v 0 0.1 0.2
v 0.1 0 0.2
v 0.1 0.1 0.2
v -0.1 0 0.0999999
v -0.1 0.1 0.0999999
v 0 0 0.0999999
v 0 0.1 0.0999999
v -0.2 0 -0.3
v -0.2 0.1 -0.3
v -0.1 0 -0.3
v -0.1 0.1 -0.3
v -0.4 0 -0.7
v -0.4 0.1 -0.7
v -0.3 0 -0.7
v -0.3 0.1 -0.7
v -0.3 0 -0.8
v -0.3 0.1 -0.8
v -0.2 0 -0.8
v -0.2 0.1 -0.8
v 0.3 0 1
v 0.4 0 1
v 0.2 0 0.7
v 0.3 0 0.7
v 0.4 0 0.7
v 0.1 0 0.4
v 0.2 0 0.4
v 0.3 0 0.4
v 0 0 0.3
v 0.1 0 0.3
v 0.2 0 0.3
v -0.2 0 0.2
v -0.1 0 0.2
v 0 0 0.2
v 0.1 0 0.2
v -0.3 0 0.0999999
v -0.2 0 0.0999999
v -0.1 0 0.0999999
v 0 0 0.0999999
v -0.4 0 -0.2
v -0.3 0 -0.2
v -0.3 0 -0.3
v -0.2 0 -0.3
v -0.1 0 -0.3
v -0.4 0 -0.7
v -0.3 0 -0.7
v -0.3 0 -0.8
v -0.2 0 -0.8
v 0.3 0.1 1
v 0.4 0.1 1
v 0.2 0.1 0.7
v 0.3 0.1 0.7
v 0.4 0.1 0.7
v 0.1 0.1 0.4
v 0.2 0.1 0.4
v 0.3 0.1 0.4
v 0 0.1 0.3
v 0.1 0.1 0.3
v 0.2 0.1 0.3
v -0.2 0.1 0.2
v -0.1 0.1 0.2
v 0 0.1 0.2
v 0.1 0.1 0.2
v -0.3 0.1 0.0999999
v -0.2 0.1 0.0999999
v -0.1 0.1 0.0999999
v 0 0.1 0.0999999
v -0.4 0.1 -0.2
v -0.3 0.1 -0.2
v -0.3 0.1 -0.3
v -0.2 0.1 -0.3
v -0.1 0.1 -0.3
v -0.4 0.1 -0.7
v -0.3 0.1 -0.7
v -0.3 0.1 -0.8
v -0.2 0.1 -0.8

# faces
f 3/3/1 2/3/1 1/3/1
f 4/3/1 2/3/1 3/3/1
f 9/3/1 6/3/1 5/3/1
f 10/3/1 6/3/1 9/3/1
f 11/4/1 8/4/1 7/4/1
f 12/4/1 8/4/1 11/4/1
f 15/3/1 14/3/1 13/3/1
f 16/3/1 14/3/1 15/3/1
f 19/3/1 18/3/1 17/3/1
f 20/3/1 18/3/1 19/3/1
f 23/2/1 22/2/1 21/2/1
f 24/2/1 22/2/1 23/2/1
f 27/1/1 26/1/1 25/1/1
f 28/1/1 26/1/1 27/1/1
f 31/1/1 30/1/1 29/1/1
f 32/1/1 30/1/1 31/1/1
f 33/4/2 34/4/2 35/4/2
f 35/4/2 34/4/2 36/4/2
f 37/4/2 38/4/2 39/4/2
f 39/4/2 38/4/2 40/4/2
f 41/4/2 42/4/2 43/4/2
f 43/4/2 42/4/2 44/4/2
f 45/3/2 46/3/2 47/3/2
f 47/3/2 46/3/2 48/3/2
f 49/2/2 50/2/2 51/2/2
f 51/2/2 50/2/2 52/2/2
f 53/1/2 54/1/2 55/1/2
f 55/1/2 54/1/2 56/1/2
f 57/1/2 58/1/2 59/1/2
f 59/1/2 58/1/2 60/1/2
f 63/1/3 62/1/3 61/1/3
f 64/1/3 62/1/3 63/1/3
f 67/1/3 66/1/3 65/1/3
f 68/1/3 66/1/3 67/1/3
f 71/2/3 70/2/3 69/2/3
f 72/2/3 70/2/3 71/2/3
f 75/3/3 74/3/3 73/3/3
f 76/3/3 74/3/3 75/3/3
f 79/3/3 78/3/3 77/3/3
f 80/3/3 78/3/3 79/3/3
f 81/4/3 80/4/3 79/4/3
f 82/4/3 80/4/3 81/4/3
f 85/3/3 84/3/3 83/3/3
f 86/3/3 84/3/3 85/3/3
f 89/3/3 88/3/3 87/3/3
f 90/3/3 88/3/3 89/3/3
f 91/1/4 92/1/4 93/1/4
f 93/1/4 92/1/4 94/1/4
f 95/1/4 96/1/4 97/1/4
f 97/1/4 96/1/4 98/1/4
f 99/2/4 100/2/4 101/2/4
f 101/2/4 100/2/4 102/2/4
f 103/3/4 104/3/4 105/3/4
f 105/3/4 104/3/4 106/3/4
f 107/4/4 108/4/4 109/4/4
f 109/4/4 108/4/4 110/4/4
f 111/4/4 112/4/4 113/4/4
f 113/4/4 112/4/4 114/4/4
f 115/3/4 116/3/4 117/3/4
f 117/3/4 116/3/4 118/3/4
f 119/4/4 120/4/4 121/4/4
f 121/4/4 120/4/4 122/4/4
f 126/1/5 124/1/5 123/1/5
f 127/1/5 124/1/5 126/1/5
f 129/1/5 126/1/5 125/1/5
f 130/1/5 126/1/5 129/1/5
f 132/2/5 129/2/5 128/2/5
f 133/2/5 129/2/5 132/2/5
f 136/3/5 132/3/5 131/3/5
f 137/3/5 132/3/5 136/3/5
f 139/3/5 135/3/5 134/3/5
f 140/4/5 136/4/5 135/4/5
f 140/3/5 135/3/5 139/3/5
f 141/4/5 136/4/5 140/4/5
f 143/3/5 139/3/5 138/3/5
f 144/3/5 139/3/5 143/3/5
f 144/3/5 143/3/5 142/3/5
f 145/4/5 140/4/5 139/4/5
f 145/3/5 139/3/5 144/3/5
f 146/4/5 140/4/5 145/4/5
f 147/3/5 144/3/5 142/3/5
f 148/4/5 145/4/5 144/4/5
f 148/3/5 144/3/5 147/3/5
f 149/4/5 145/4/5 148/4/5
f 150/4/5 145/4/5 149/4/5
f 151/1/6 152/1/6 154/1/6
f 154/1/6 152/1/6 155/1/6
f 153/1/6 154/1/6 157/1/6
f 157/1/6 154/1/6 158/1/6
f 156/2/6 157/2/6 160/2/6
f 160/2/6 157/2/6 161/2/6
f 159/3/6 160/3/6 164/3/6
f 164/3/6 160/3/6 165/3/6
f 162/3/6 163/3/6 167/3/6
f 163/4/6 164/4/6 168/4/6
f 167/3/6 163/3/6 168/3/6
f 168/4/6 164/4/6 169/4/6
f 166/3/6 167/3/6 171/3/6
f 171/3/6 167/3/6 172/3/6
f 170/3/6 171/3/6 172/3/6
f 167/4/6 168/4/6 173/4/6
f 172/3/6 167/3/6 173/3/6
f 173/4/6 168/4/6 174/4/6
f 170/3/6 172/3/6 175/3/6
f 172/4/6 173/4/6 176/4/6
f 175/3/6 172/3/6 176/3/6
f 176/4/6 173/4/6 177/4/6
f 177/4/6 173/4/6 178/4/6
