# MagicaVoxel @ Ephtracy

# group
o 

# material
mtllib DuoCherrypies2.mtl
usemtl palette

# normals
vn -1 0 0
vn 1 0 0
vn 0 0 1
vn 0 0 -1
vn 0 -1 0
vn 0 1 0

# texcoords
vt 0.00195312 0.5
vt 0.0566406 0.5
vt 0.169922 0.5
vt 0.556641 0.5

# verts
v 0.5 0 -0.4
v 0.5 0 -0.9
v 0.5 0.1 -0.6
v 0.5 0.1 -0.7
v 0.5 0.1 -0.9
v 0.5 0.2 -0.4
v 0.5 0.2 -0.6
v 0.5 0.3 -0.7
v 0.5 0.3 -0.9
v 0.5 0.4 -0.7
v 0.5 0.4 -0.9
v 0.5 0.5 -0.7
v 0.5 0.5 -0.9
v 0.5 0.6 -0.7
v 0.5 0.6 -0.9
v 0.5 0.7 -0.7
v 0.5 0.7 -0.9
v 1 0 -0.4
v 1 0 -0.9
v 1 0.1 -0.6
v 1 0.1 -0.7
v 1 0.1 -0.9
v 1 0.2 -0.4
v 1 0.2 -0.6
v 1 0.3 -0.7
v 1 0.3 -0.9
v 1 0.4 -0.7
v 1 0.4 -0.9
v 1 0.5 -0.7
v 1 0.5 -0.9
v 1 0.6 -0.7
v 1 0.6 -0.9
v 1 0.7 -0.7
v 1 0.7 -0.9
v 0.7 0 -0.4
v 0.7 0 -0.9
v 0.7 0.1 -0.6
v 0.7 0.1 -0.7
v 0.7 0.1 -0.9
v 0.7 0.2 -0.4
v 0.7 0.2 -0.6
v 0.7 0.3 -0.7
v 0.7 0.3 -0.9
v 0.7 0.4 -0.7
v 0.7 0.4 -0.9
v 0.7 0.5 -0.7
v 0.7 0.5 -0.9
v 0.7 0.6 -0.7
v 0.7 0.6 -0.9
v 0.7 0.7 -0.7
v 0.7 0.7 -0.9
v 1.2 0 -0.4
v 1.2 0 -0.9
v 1.2 0.1 -0.6
v 1.2 0.1 -0.7
v 1.2 0.1 -0.9
v 1.2 0.2 -0.4
v 1.2 0.2 -0.6
v 1.2 0.3 -0.7
v 1.2 0.3 -0.9
v 1.2 0.4 -0.7
v 1.2 0.4 -0.9
v 1.2 0.5 -0.7
v 1.2 0.5 -0.9
v 1.2 0.6 -0.7
v 1.2 0.6 -0.9
v 1.2 0.7 -0.7
v 1.2 0.7 -0.9
v 0.5 0 -0.4
v 0.5 0.2 -0.4
v 0.7 0 -0.4
v 0.7 0.2 -0.4
v 1 0 -0.4
v 1 0.2 -0.4
v 1.2 0 -0.4
v 1.2 0.2 -0.4
v 0.5 0.1 -0.7
v 0.5 0.3 -0.7
v 0.5 0.4 -0.7
v 0.5 0.5 -0.7
v 0.5 0.6 -0.7
v 0.5 0.7 -0.7
v 0.7 0.1 -0.7
v 0.7 0.3 -0.7
v 0.7 0.4 -0.7
v 0.7 0.5 -0.7
v 0.7 0.6 -0.7
v 0.7 0.7 -0.7
v 1 0.1 -0.7
v 1 0.3 -0.7
v 1 0.4 -0.7
v 1 0.5 -0.7
v 1 0.6 -0.7
v 1 0.7 -0.7
v 1.2 0.1 -0.7
v 1.2 0.3 -0.7
v 1.2 0.4 -0.7
v 1.2 0.5 -0.7
v 1.2 0.6 -0.7
v 1.2 0.7 -0.7
v 0.5 0.1 -0.6
v 0.5 0.2 -0.6
v 0.7 0.1 -0.6
v 0.7 0.2 -0.6
v 1 0.1 -0.6
v 1 0.2 -0.6
v 1.2 0.1 -0.6
v 1.2 0.2 -0.6
v 0.5 0 -0.9
v 0.5 0.1 -0.9
v 0.5 0.3 -0.9
v 0.5 0.4 -0.9
v 0.5 0.5 -0.9
v 0.5 0.6 -0.9
v 0.5 0.7 -0.9
v 0.7 0 -0.9
v 0.7 0.1 -0.9
v 0.7 0.3 -0.9
v 0.7 0.4 -0.9
v 0.7 0.5 -0.9
v 0.7 0.6 -0.9
v 0.7 0.7 -0.9
v 1 0 -0.9
v 1 0.1 -0.9
v 1 0.3 -0.9
v 1 0.4 -0.9
v 1 0.5 -0.9
v 1 0.6 -0.9
v 1 0.7 -0.9
v 1.2 0 -0.9
v 1.2 0.1 -0.9
v 1.2 0.3 -0.9
v 1.2 0.4 -0.9
v 1.2 0.5 -0.9
v 1.2 0.6 -0.9
v 1.2 0.7 -0.9
v 0.5 0 -0.4
v 0.7 0 -0.4
v 1 0 -0.4
v 1.2 0 -0.4
v 0.5 0 -0.9
v 0.7 0 -0.9
v 1 0 -0.9
v 1.2 0 -0.9
v 0.5 0.1 -0.6
v 0.7 0.1 -0.6
v 1 0.1 -0.6
v 1.2 0.1 -0.6
v 0.5 0.1 -0.7
v 0.7 0.1 -0.7
v 1 0.1 -0.7
v 1.2 0.1 -0.7
v 0.5 0.2 -0.4
v 0.7 0.2 -0.4
v 1 0.2 -0.4
v 1.2 0.2 -0.4
v 0.5 0.2 -0.6
v 0.7 0.2 -0.6
v 1 0.2 -0.6
v 1.2 0.2 -0.6
v 0.5 0.7 -0.7
v 0.7 0.7 -0.7
v 1 0.7 -0.7
v 1.2 0.7 -0.7
v 0.5 0.7 -0.9
v 0.7 0.7 -0.9
v 1 0.7 -0.9
v 1.2 0.7 -0.9

# faces
f 3/3/1 2/3/1 1/3/1
f 4/3/1 2/3/1 3/3/1
f 5/3/1 2/3/1 4/3/1
f 6/3/1 3/3/1 1/3/1
f 7/3/1 3/3/1 6/3/1
f 8/1/1 5/1/1 4/1/1
f 9/1/1 5/1/1 8/1/1
f 10/4/1 9/4/1 8/4/1
f 11/4/1 9/4/1 10/4/1
f 12/1/1 11/1/1 10/1/1
f 13/1/1 11/1/1 12/1/1
f 14/2/1 13/2/1 12/2/1
f 15/2/1 13/2/1 14/2/1
f 16/1/1 15/1/1 14/1/1
f 17/1/1 15/1/1 16/1/1
f 20/3/1 19/3/1 18/3/1
f 21/3/1 19/3/1 20/3/1
f 22/3/1 19/3/1 21/3/1
f 23/3/1 20/3/1 18/3/1
f 24/3/1 20/3/1 23/3/1
f 25/1/1 22/1/1 21/1/1
f 26/1/1 22/1/1 25/1/1
f 27/4/1 26/4/1 25/4/1
f 28/4/1 26/4/1 27/4/1
f 29/1/1 28/1/1 27/1/1
f 30/1/1 28/1/1 29/1/1
f 31/2/1 30/2/1 29/2/1
f 32/2/1 30/2/1 31/2/1
f 33/1/1 32/1/1 31/1/1
f 34/1/1 32/1/1 33/1/1
f 35/3/2 36/3/2 37/3/2
f 37/3/2 36/3/2 38/3/2
f 38/3/2 36/3/2 39/3/2
f 35/3/2 37/3/2 40/3/2
f 40/3/2 37/3/2 41/3/2
f 38/1/2 39/1/2 42/1/2
f 42/1/2 39/1/2 43/1/2
f 42/4/2 43/4/2 44/4/2
f 44/4/2 43/4/2 45/4/2
f 44/1/2 45/1/2 46/1/2
f 46/1/2 45/1/2 47/1/2
f 46/2/2 47/2/2 48/2/2
f 48/2/2 47/2/2 49/2/2
f 48/1/2 49/1/2 50/1/2
f 50/1/2 49/1/2 51/1/2
f 52/3/2 53/3/2 54/3/2
f 54/3/2 53/3/2 55/3/2
f 55/3/2 53/3/2 56/3/2
f 52/3/2 54/3/2 57/3/2
f 57/3/2 54/3/2 58/3/2
f 55/1/2 56/1/2 59/1/2
f 59/1/2 56/1/2 60/1/2
f 59/4/2 60/4/2 61/4/2
f 61/4/2 60/4/2 62/4/2
f 61/1/2 62/1/2 63/1/2
f 63/1/2 62/1/2 64/1/2
f 63/2/2 64/2/2 65/2/2
f 65/2/2 64/2/2 66/2/2
f 65/1/2 66/1/2 67/1/2
f 67/1/2 66/1/2 68/1/2
f 71/3/3 70/3/3 69/3/3
f 72/3/3 70/3/3 71/3/3
f 75/3/3 74/3/3 73/3/3
f 76/3/3 74/3/3 75/3/3
f 83/1/3 78/1/3 77/1/3
f 84/4/3 79/4/3 78/4/3
f 84/1/3 78/1/3 83/1/3
f 85/1/3 80/1/3 79/1/3
f 85/4/3 79/4/3 84/4/3
f 86/2/3 81/2/3 80/2/3
f 86/1/3 80/1/3 85/1/3
f 87/1/3 82/1/3 81/1/3
f 87/2/3 81/2/3 86/2/3
f 88/1/3 82/1/3 87/1/3
f 95/1/3 90/1/3 89/1/3
f 96/4/3 91/4/3 90/4/3
f 96/1/3 90/1/3 95/1/3
f 97/1/3 92/1/3 91/1/3
f 97/4/3 91/4/3 96/4/3
f 98/2/3 93/2/3 92/2/3
f 98/1/3 92/1/3 97/1/3
f 99/1/3 94/1/3 93/1/3
f 99/2/3 93/2/3 98/2/3
f 100/1/3 94/1/3 99/1/3
f 101/3/4 102/3/4 103/3/4
f 103/3/4 102/3/4 104/3/4
f 105/3/4 106/3/4 107/3/4
f 107/3/4 106/3/4 108/3/4
f 109/3/4 110/3/4 116/3/4
f 110/1/4 111/1/4 117/1/4
f 116/3/4 110/3/4 117/3/4
f 111/4/4 112/4/4 118/4/4
f 117/1/4 111/1/4 118/1/4
f 112/1/4 113/1/4 119/1/4
f 118/4/4 112/4/4 119/4/4
f 113/2/4 114/2/4 120/2/4
f 119/1/4 113/1/4 120/1/4
f 114/1/4 115/1/4 121/1/4
f 120/2/4 114/2/4 121/2/4
f 121/1/4 115/1/4 122/1/4
f 123/3/4 124/3/4 130/3/4
f 124/1/4 125/1/4 131/1/4
f 130/3/4 124/3/4 131/3/4
f 125/4/4 126/4/4 132/4/4
f 131/1/4 125/1/4 132/1/4
f 126/1/4 127/1/4 133/1/4
f 132/4/4 126/4/4 133/4/4
f 127/2/4 128/2/4 134/2/4
f 133/1/4 127/1/4 134/1/4
f 128/1/4 129/1/4 135/1/4
f 134/2/4 128/2/4 135/2/4
f 135/1/4 129/1/4 136/1/4
f 141/3/5 138/3/5 137/3/5
f 142/3/5 138/3/5 141/3/5
f 143/3/5 140/3/5 139/3/5
f 144/3/5 140/3/5 143/3/5
f 145/3/6 146/3/6 149/3/6
f 149/3/6 146/3/6 150/3/6
f 147/3/6 148/3/6 151/3/6
f 151/3/6 148/3/6 152/3/6
f 153/3/6 154/3/6 157/3/6
f 157/3/6 154/3/6 158/3/6
f 155/3/6 156/3/6 159/3/6
f 159/3/6 156/3/6 160/3/6
f 161/1/6 162/1/6 165/1/6
f 165/1/6 162/1/6 166/1/6
f 163/1/6 164/1/6 167/1/6
f 167/1/6 164/1/6 168/1/6
