# MagicaVoxel @ Ephtracy

# group
o 

# material
mtllib DuoCherryhoja.mtl
usemtl palette

# normals
vn -1 0 0
vn 1 0 0
vn 0 0 1
vn 0 0 -1
vn 0 -1 0
vn 0 1 0

# texcoords
vt 0.556641 0.5
vt 0.568359 0.5

# verts
v -0.2 3.4 0.7
v -0.2 3.4 0.4
v -0.2 3.5 0.7
v -0.2 3.5 0.4
v -0.2 3.5 0.2
v -0.2 3.6 0.4
v -0.2 3.6 0.2
v -0.0999999 3.4 0.8
v -0.0999999 3.4 0.7
v -0.0999999 3.4 0.4
v -0.0999999 3.4 0.3
v -0.0999999 3.5 0.8
v -0.0999999 3.5 0.7
v -0.0999999 3.5 0.4
v -0.0999999 3.5 0.3
v -0.0999999 3.5 0.2
v -0.0999999 3.5 0.1
v -0.0999999 3.6 0.2
v -0.0999999 3.6 0.1
v -0.0999999 3.7 -0.1
v -0.0999999 3.7 -0.4
v -0.0999999 3.8 -0.1
v -0.0999999 3.8 -0.4
v -0.0999999 3.8 -0.6
v -0.0999999 3.9 -0.4
v -0.0999999 3.9 -0.6
v 5.96046e-08 3.4 0.9
v 5.96046e-08 3.4 0.8
v 5.96046e-08 3.5 0.9
v 5.96046e-08 3.5 0.8
v 5.96046e-08 3.6 0.1
v 5.96046e-08 3.6 -0.1
v 5.96046e-08 3.7 0.1
v 5.96046e-08 3.7 -0.1
v 5.96046e-08 3.8 -0.6
v 5.96046e-08 3.8 -0.7
v 5.96046e-08 3.9 -0.6
v 5.96046e-08 3.9 -0.7
v 0.1 3.5 0.5
v 0.1 3.5 0.4
v 0.1 3.6 0.5
v 0.1 3.6 0.4
v 0.1 3.8 -0.3
v 0.1 3.8 -0.4
v 0.1 3.8 -0.7
v 0.1 3.8 -0.8
v 0.1 3.9 -0.3
v 0.1 3.9 -0.4
v 0.1 3.9 -0.7
v 0.1 3.9 -0.8
v 0.1 3.4 0.9
v 0.1 3.4 0.8
v 0.1 3.4 0.4
v 0.1 3.4 0.3
v 0.1 3.5 0.9
v 0.1 3.5 0.8
v 0.1 3.5 0.4
v 0.1 3.5 0.3
v 0.1 3.7 -0.3
v 0.1 3.7 -0.4
v 0.1 3.8 -0.3
v 0.1 3.8 -0.4
v 0.2 3.4 0.8
v 0.2 3.4 0.7
v 0.2 3.4 0.5
v 0.2 3.4 0.4
v 0.2 3.5 0.8
v 0.2 3.5 0.7
v 0.2 3.5 0.5
v 0.2 3.5 0.4
v 0.2 3.5 0.3
v 0.2 3.5 0.1
v 0.2 3.6 0.3
v 0.2 3.6 0.1
v 0.2 3.8 -0.7
v 0.2 3.8 -0.8
v 0.2 3.9 -0.7
v 0.2 3.9 -0.8
v 0.3 3.4 0.7
v 0.3 3.4 0.5
v 0.3 3.5 0.7
v 0.3 3.5 0.5
v 0.3 3.5 0.3
v 0.3 3.6 0.5
v 0.3 3.6 0.3
v 0.3 3.6 0.1
v 0.3 3.6 -0.1
v 0.3 3.7 0.1
v 0.3 3.7 -0.1
v 0.3 3.8 -0.6
v 0.3 3.8 -0.7
v 0.3 3.9 -0.6
v 0.3 3.9 -0.7
v 0.4 3.7 -0.1
v 0.4 3.7 -0.3
v 0.4 3.8 -0.1
v 0.4 3.8 -0.3
v 0.4 3.8 -0.6
v 0.4 3.9 -0.3
v 0.4 3.9 -0.6
v 5.96046e-08 3.4 0.9
v 5.96046e-08 3.5 0.9
v 0.1 3.4 0.9
v 0.1 3.5 0.9
v -0.0999999 3.4 0.8
v -0.0999999 3.5 0.8
v 5.96046e-08 3.4 0.8
v 5.96046e-08 3.5 0.8
v 0.1 3.4 0.8
v 0.1 3.5 0.8
v 0.2 3.4 0.8
v 0.2 3.5 0.8
v -0.2 3.4 0.7
v -0.2 3.5 0.7
v -0.0999999 3.4 0.7
v -0.0999999 3.5 0.7
v 0.2 3.4 0.7
v 0.2 3.5 0.7
v 0.3 3.4 0.7
v 0.3 3.5 0.7
v 0.1 3.5 0.5
v 0.1 3.6 0.5
v 0.3 3.5 0.5
v 0.3 3.6 0.5
v -0.2 3.5 0.4
v -0.2 3.6 0.4
v 5.96046e-08 3.5 0.4
v 5.96046e-08 3.6 0.4
v 0.1 3.5 0.4
v 0.1 3.6 0.4
v 5.96046e-08 3.6 0.1
v 5.96046e-08 3.7 0.1
v 0.1 3.6 0.1
v 0.2 3.6 0.1
v 0.3 3.6 0.1
v 0.3 3.7 0.1
v -0.0999999 3.7 -0.1
v -0.0999999 3.8 -0.1
v 5.96046e-08 3.7 -0.1
v 0.1 3.7 -0.1
v 0.1 3.8 -0.1
v 0.2 3.7 -0.1
v 0.2 3.8 -0.1
v 0.3 3.7 -0.1
v 0.4 3.7 -0.1
v 0.4 3.8 -0.1
v 0.1 3.8 -0.3
v 0.1 3.9 -0.3
v 0.2 3.8 -0.3
v 0.2 3.9 -0.3
v 0.4 3.8 -0.3
v 0.4 3.9 -0.3
v -0.0999999 3.8 -0.4
v -0.0999999 3.9 -0.4
v 0.1 3.8 -0.4
v 0.1 3.9 -0.4
v 0.2 3.4 0.5
v 0.2 3.5 0.5
v 0.3 3.4 0.5
v 0.3 3.5 0.5
v -0.2 3.4 0.4
v -0.2 3.5 0.4
v -0.0999999 3.4 0.4
v -0.0999999 3.5 0.4
v 0.1 3.4 0.4
v 0.1 3.5 0.4
v 0.2 3.4 0.4
v 0.2 3.5 0.4
v -0.0999999 3.4 0.3
v -0.0999999 3.5 0.3
v 5.96046e-08 3.4 0.3
v 5.96046e-08 3.5 0.3
v 0.1 3.4 0.3
v 0.1 3.5 0.3
v 0.2 3.5 0.3
v 0.2 3.6 0.3
v 0.3 3.5 0.3
v 0.3 3.6 0.3
v -0.2 3.5 0.2
v -0.2 3.6 0.2
v -0.0999999 3.5 0.2
v -0.0999999 3.6 0.2
v -0.0999999 3.5 0.1
v -0.0999999 3.6 0.1
v 5.96046e-08 3.5 0.1
v 5.96046e-08 3.6 0.1
v 0.1 3.5 0.1
v 0.1 3.6 0.1
v 0.2 3.5 0.1
v 0.2 3.6 0.1
v 5.96046e-08 3.6 -0.1
v 5.96046e-08 3.7 -0.1
v 0.1 3.6 -0.1
v 0.1 3.7 -0.1
v 0.2 3.6 -0.1
v 0.2 3.7 -0.1
v 0.3 3.6 -0.1
v 0.3 3.7 -0.1
v 0.1 3.7 -0.3
v 0.1 3.8 -0.3
v 0.2 3.7 -0.3
v 0.2 3.8 -0.3
v 0.4 3.7 -0.3
v 0.4 3.8 -0.3
v -0.0999999 3.7 -0.4
v -0.0999999 3.8 -0.4
v 0.1 3.7 -0.4
v 0.1 3.8 -0.4
v -0.0999999 3.8 -0.6
v -0.0999999 3.9 -0.6
v 5.96046e-08 3.8 -0.6
v 5.96046e-08 3.9 -0.6
v 0.3 3.8 -0.6
v 0.3 3.9 -0.6
v 0.4 3.8 -0.6
v 0.4 3.9 -0.6
v 5.96046e-08 3.8 -0.7
v 5.96046e-08 3.9 -0.7
v 0.1 3.8 -0.7
v 0.1 3.9 -0.7
v 0.2 3.8 -0.7
v 0.2 3.9 -0.7
v 0.3 3.8 -0.7
v 0.3 3.9 -0.7
v 0.1 3.8 -0.8
v 0.1 3.9 -0.8
v 0.2 3.8 -0.8
v 0.2 3.9 -0.8
v 5.96046e-08 3.4 0.9
v 0.1 3.4 0.9
v -0.0999999 3.4 0.8
v 5.96046e-08 3.4 0.8
v 0.1 3.4 0.8
v 0.2 3.4 0.8
v -0.2 3.4 0.7
v -0.0999999 3.4 0.7
v 0.2 3.4 0.7
v 0.3 3.4 0.7
v 5.96046e-08 3.4 0.6
v 0.1 3.4 0.6
v 0.2 3.4 0.5
v 0.3 3.4 0.5
v -0.2 3.4 0.4
v -0.0999999 3.4 0.4
v 0.1 3.4 0.4
v 0.2 3.4 0.4
v -0.0999999 3.4 0.3
v 5.96046e-08 3.4 0.3
v 0.1 3.4 0.3
v 0.2 3.5 0.5
v 0.3 3.5 0.5
v -0.2 3.5 0.4
v -0.0999999 3.5 0.4
v 0.1 3.5 0.4
v 0.2 3.5 0.4
v -0.0999999 3.5 0.3
v 5.96046e-08 3.5 0.3
v 0.1 3.5 0.3
v 0.2 3.5 0.3
v 0.3 3.5 0.3
v -0.2 3.5 0.2
v -0.0999999 3.5 0.2
v -0.0999999 3.5 0.1
v 5.96046e-08 3.5 0.1
v 0.1 3.5 0.1
v 0.2 3.5 0.1
v 5.96046e-08 3.6 0.1
v 0.1 3.6 0.1
v 0.2 3.6 0.1
v 0.3 3.6 0.1
v 0.1 3.6 0
v 0.2 3.6 0
v 5.96046e-08 3.6 -0.1
v 0.1 3.6 -0.1
v 0.2 3.6 -0.1
v 0.3 3.6 -0.1
v -0.0999999 3.7 -0.1
v 5.96046e-08 3.7 -0.1
v 0.1 3.7 -0.1
v 0.2 3.7 -0.1
v 0.3 3.7 -0.1
v 0.4 3.7 -0.1
v 0.1 3.7 -0.3
v 0.2 3.7 -0.3
v 0.4 3.7 -0.3
v -0.0999999 3.7 -0.4
v 0.1 3.7 -0.4
v 0.1 3.8 -0.3
v 0.2 3.8 -0.3
v 0.4 3.8 -0.3
v -0.0999999 3.8 -0.4
v 0.1 3.8 -0.4
v 0.1 3.8 -0.5
v 0.2 3.8 -0.5
v -0.0999999 3.8 -0.6
v 5.96046e-08 3.8 -0.6
v 0.3 3.8 -0.6
v 0.4 3.8 -0.6
v 5.96046e-08 3.8 -0.7
v 0.1 3.8 -0.7
v 0.2 3.8 -0.7
v 0.3 3.8 -0.7
v 0.1 3.8 -0.8
v 0.2 3.8 -0.8
v 5.96046e-08 3.5 0.9
v 0.1 3.5 0.9
v -0.0999999 3.5 0.8
v 5.96046e-08 3.5 0.8
v 0.1 3.5 0.8
v 0.2 3.5 0.8
v -0.2 3.5 0.7
v -0.0999999 3.5 0.7
v 0.2 3.5 0.7
v 0.3 3.5 0.7
v 5.96046e-08 3.5 0.6
v 0.1 3.5 0.6
v 0.1 3.5 0.5
v 0.3 3.5 0.5
v -0.2 3.5 0.4
v 5.96046e-08 3.5 0.4
v 0.1 3.5 0.4
v 0.1 3.6 0.5
v 0.3 3.6 0.5
v -0.2 3.6 0.4
v 5.96046e-08 3.6 0.4
v 0.1 3.6 0.4
v 0.2 3.6 0.3
v 0.3 3.6 0.3
v -0.2 3.6 0.2
v -0.0999999 3.6 0.2
v -0.0999999 3.6 0.1
v 5.96046e-08 3.6 0.1
v 0.1 3.6 0.1
v 0.2 3.6 0.1
v 5.96046e-08 3.7 0.1
v 0.3 3.7 0.1
v 0.1 3.7 0
v 0.2 3.7 0
v 5.96046e-08 3.7 -0.1
v 0.1 3.7 -0.1
v 0.2 3.7 -0.1
v 0.3 3.7 -0.1
v -0.0999999 3.8 -0.1
v 0.1 3.8 -0.1
v 0.2 3.8 -0.1
v 0.4 3.8 -0.1
v 0.1 3.8 -0.3
v 0.2 3.8 -0.3
v 0.4 3.8 -0.3
v -0.0999999 3.8 -0.4
v 0.1 3.8 -0.4
v 0.1 3.9 -0.3
v 0.2 3.9 -0.3
v 0.4 3.9 -0.3
v -0.0999999 3.9 -0.4
v 0.1 3.9 -0.4
v 0.1 3.9 -0.5
v 0.2 3.9 -0.5
v -0.0999999 3.9 -0.6
v 5.96046e-08 3.9 -0.6
v 0.3 3.9 -0.6
v 0.4 3.9 -0.6
v 5.96046e-08 3.9 -0.7
v 0.1 3.9 -0.7
v 0.2 3.9 -0.7
v 0.3 3.9 -0.7
v 0.1 3.9 -0.8
v 0.2 3.9 -0.8

# faces
f 3/1/1 2/1/1 1/1/1
f 4/1/1 2/1/1 3/1/1
f 6/1/1 5/1/1 4/1/1
f 7/1/1 5/1/1 6/1/1
f 12/1/1 9/1/1 8/1/1
f 13/1/1 9/1/1 12/1/1
f 14/1/1 11/1/1 10/1/1
f 15/1/1 11/1/1 14/1/1
f 18/1/1 17/1/1 16/1/1
f 19/1/1 17/1/1 18/1/1
f 22/1/1 21/1/1 20/1/1
f 23/1/1 21/1/1 22/1/1
f 25/1/1 24/1/1 23/1/1
f 26/1/1 24/1/1 25/1/1
f 29/1/1 28/1/1 27/1/1
f 30/1/1 28/1/1 29/1/1
f 33/1/1 32/1/1 31/1/1
f 34/1/1 32/1/1 33/1/1
f 37/1/1 36/1/1 35/1/1
f 38/1/1 36/1/1 37/1/1
f 41/1/1 40/1/1 39/1/1
f 42/1/1 40/1/1 41/1/1
f 47/2/1 44/2/1 43/2/1
f 48/2/1 44/2/1 47/2/1
f 49/1/1 46/1/1 45/1/1
f 50/1/1 46/1/1 49/1/1
f 51/1/2 52/1/2 55/1/2
f 55/1/2 52/1/2 56/1/2
f 53/2/2 54/2/2 57/2/2
f 57/2/2 54/2/2 58/2/2
f 59/1/2 60/1/2 61/1/2
f 61/1/2 60/1/2 62/1/2
f 63/1/2 64/1/2 67/1/2
f 67/1/2 64/1/2 68/1/2
f 65/1/2 66/1/2 69/1/2
f 69/1/2 66/1/2 70/1/2
f 71/1/2 72/1/2 73/1/2
f 73/1/2 72/1/2 74/1/2
f 75/1/2 76/1/2 77/1/2
f 77/1/2 76/1/2 78/1/2
f 79/1/2 80/1/2 81/1/2
f 81/1/2 80/1/2 82/1/2
f 82/1/2 83/1/2 84/1/2
f 84/1/2 83/1/2 85/1/2
f 86/1/2 87/1/2 88/1/2
f 88/1/2 87/1/2 89/1/2
f 90/1/2 91/1/2 92/1/2
f 92/1/2 91/1/2 93/1/2
f 94/1/2 95/1/2 96/1/2
f 96/1/2 95/1/2 97/1/2
f 97/1/2 98/1/2 99/1/2
f 99/1/2 98/1/2 100/1/2
f 103/1/3 102/1/3 101/1/3
f 104/1/3 102/1/3 103/1/3
f 107/1/3 106/1/3 105/1/3
f 108/1/3 106/1/3 107/1/3
f 111/1/3 110/1/3 109/1/3
f 112/1/3 110/1/3 111/1/3
f 115/1/3 114/1/3 113/1/3
f 116/1/3 114/1/3 115/1/3
f 119/1/3 118/1/3 117/1/3
f 120/1/3 118/1/3 119/1/3
f 123/1/3 122/1/3 121/1/3
f 124/1/3 122/1/3 123/1/3
f 127/1/3 126/1/3 125/1/3
f 128/1/3 126/1/3 127/1/3
f 129/2/3 128/2/3 127/2/3
f 130/2/3 128/2/3 129/2/3
f 133/1/3 132/1/3 131/1/3
f 134/1/3 132/1/3 133/1/3
f 135/1/3 132/1/3 134/1/3
f 136/1/3 132/1/3 135/1/3
f 139/1/3 138/1/3 137/1/3
f 140/1/3 138/1/3 139/1/3
f 141/1/3 138/1/3 140/1/3
f 142/2/3 141/2/3 140/2/3
f 143/2/3 141/2/3 142/2/3
f 144/1/3 143/1/3 142/1/3
f 145/1/3 143/1/3 144/1/3
f 146/1/3 143/1/3 145/1/3
f 149/2/3 148/2/3 147/2/3
f 150/2/3 148/2/3 149/2/3
f 151/1/3 150/1/3 149/1/3
f 152/1/3 150/1/3 151/1/3
f 155/1/3 154/1/3 153/1/3
f 156/1/3 154/1/3 155/1/3
f 157/1/4 158/1/4 159/1/4
f 159/1/4 158/1/4 160/1/4
f 161/1/4 162/1/4 163/1/4
f 163/1/4 162/1/4 164/1/4
f 165/1/4 166/1/4 167/1/4
f 167/1/4 166/1/4 168/1/4
f 169/1/4 170/1/4 171/1/4
f 171/1/4 170/1/4 172/1/4
f 171/2/4 172/2/4 173/2/4
f 173/2/4 172/2/4 174/2/4
f 175/1/4 176/1/4 177/1/4
f 177/1/4 176/1/4 178/1/4
f 179/1/4 180/1/4 181/1/4
f 181/1/4 180/1/4 182/1/4
f 183/1/4 184/1/4 185/1/4
f 185/1/4 184/1/4 186/1/4
f 185/2/4 186/2/4 187/2/4
f 187/2/4 186/2/4 188/2/4
f 187/1/4 188/1/4 189/1/4
f 189/1/4 188/1/4 190/1/4
f 191/1/4 192/1/4 193/1/4
f 193/1/4 192/1/4 194/1/4
f 193/2/4 194/2/4 195/2/4
f 195/2/4 194/2/4 196/2/4
f 195/1/4 196/1/4 197/1/4
f 197/1/4 196/1/4 198/1/4
f 199/2/4 200/2/4 201/2/4
f 201/2/4 200/2/4 202/2/4
f 201/1/4 202/1/4 203/1/4
f 203/1/4 202/1/4 204/1/4
f 205/1/4 206/1/4 207/1/4
f 207/1/4 206/1/4 208/1/4
f 209/1/4 210/1/4 211/1/4
f 211/1/4 210/1/4 212/1/4
f 213/1/4 214/1/4 215/1/4
f 215/1/4 214/1/4 216/1/4
f 217/1/4 218/1/4 219/1/4
f 219/1/4 218/1/4 220/1/4
f 221/1/4 222/1/4 223/1/4
f 223/1/4 222/1/4 224/1/4
f 225/1/4 226/1/4 227/1/4
f 227/1/4 226/1/4 228/1/4
f 232/1/5 230/1/5 229/1/5
f 233/1/5 230/1/5 232/1/5
f 236/1/5 232/1/5 231/1/5
f 236/1/5 234/1/5 233/1/5
f 236/1/5 233/1/5 232/1/5
f 237/1/5 234/1/5 236/1/5
f 239/1/5 236/1/5 235/1/5
f 239/1/5 238/1/5 237/1/5
f 239/1/5 237/1/5 236/1/5
f 240/1/5 238/1/5 239/1/5
f 241/1/5 238/1/5 240/1/5
f 242/1/5 238/1/5 241/1/5
f 243/1/5 239/1/5 235/1/5
f 244/1/5 239/1/5 243/1/5
f 245/2/5 240/2/5 239/2/5
f 245/1/5 241/1/5 240/1/5
f 246/1/5 241/1/5 245/1/5
f 247/1/5 239/1/5 244/1/5
f 248/2/5 245/2/5 239/2/5
f 248/1/5 239/1/5 247/1/5
f 249/2/5 245/2/5 248/2/5
f 255/1/5 251/1/5 250/1/5
f 256/1/5 253/1/5 252/1/5
f 258/1/5 255/1/5 254/1/5
f 259/1/5 251/1/5 255/1/5
f 259/1/5 255/1/5 258/1/5
f 260/1/5 251/1/5 259/1/5
f 261/1/5 257/1/5 256/1/5
f 261/1/5 256/1/5 252/1/5
f 262/1/5 257/1/5 261/1/5
f 263/1/5 257/1/5 262/1/5
f 264/2/5 258/2/5 257/2/5
f 264/1/5 257/1/5 263/1/5
f 265/1/5 259/1/5 258/1/5
f 265/2/5 258/2/5 264/2/5
f 266/1/5 259/1/5 265/1/5
f 271/1/5 268/1/5 267/1/5
f 271/1/5 270/1/5 269/1/5
f 271/1/5 269/1/5 268/1/5
f 272/1/5 270/1/5 271/1/5
f 273/1/5 271/1/5 267/1/5
f 274/2/5 272/2/5 271/2/5
f 274/1/5 271/1/5 273/1/5
f 275/1/5 270/1/5 272/1/5
f 275/2/5 272/2/5 274/2/5
f 276/1/5 270/1/5 275/1/5
f 283/1/5 278/1/5 277/1/5
f 283/1/5 279/1/5 278/1/5
f 283/2/5 280/2/5 279/2/5
f 284/1/5 282/1/5 281/1/5
f 284/2/5 280/2/5 283/2/5
f 284/1/5 281/1/5 280/1/5
f 285/1/5 282/1/5 284/1/5
f 286/1/5 283/1/5 277/1/5
f 287/1/5 283/1/5 286/1/5
f 292/2/5 289/2/5 288/2/5
f 293/2/5 289/2/5 292/2/5
f 293/1/5 292/1/5 291/1/5
f 294/1/5 290/1/5 289/1/5
f 294/2/5 289/2/5 293/2/5
f 295/1/5 293/1/5 291/1/5
f 295/1/5 294/1/5 293/1/5
f 296/1/5 294/1/5 295/1/5
f 297/1/5 290/1/5 294/1/5
f 297/1/5 294/1/5 296/1/5
f 298/1/5 290/1/5 297/1/5
f 299/1/5 297/1/5 296/1/5
f 300/1/5 297/1/5 299/1/5
f 301/1/5 297/1/5 300/1/5
f 302/1/5 297/1/5 301/1/5
f 303/1/5 301/1/5 300/1/5
f 304/1/5 301/1/5 303/1/5
f 305/1/6 306/1/6 308/1/6
f 308/1/6 306/1/6 309/1/6
f 307/1/6 308/1/6 312/1/6
f 309/1/6 310/1/6 312/1/6
f 308/1/6 309/1/6 312/1/6
f 312/1/6 310/1/6 313/1/6
f 311/1/6 312/1/6 315/1/6
f 313/1/6 314/1/6 315/1/6
f 312/1/6 313/1/6 315/1/6
f 315/1/6 314/1/6 316/1/6
f 315/2/6 316/2/6 317/2/6
f 316/1/6 314/1/6 317/1/6
f 317/1/6 314/1/6 318/1/6
f 311/1/6 315/1/6 319/1/6
f 315/2/6 317/2/6 320/2/6
f 319/1/6 315/1/6 320/1/6
f 320/2/6 317/2/6 321/2/6
f 322/1/6 323/1/6 326/1/6
f 326/1/6 323/1/6 327/1/6
f 327/1/6 323/1/6 328/1/6
f 324/1/6 325/1/6 329/1/6
f 329/1/6 325/1/6 330/1/6
f 330/1/6 325/1/6 331/1/6
f 325/2/6 326/2/6 332/2/6
f 331/1/6 325/1/6 332/1/6
f 326/1/6 327/1/6 333/1/6
f 332/2/6 326/2/6 333/2/6
f 333/1/6 327/1/6 334/1/6
f 335/1/6 336/1/6 337/1/6
f 337/1/6 336/1/6 338/1/6
f 335/1/6 337/1/6 339/1/6
f 337/2/6 338/2/6 340/2/6
f 339/1/6 337/1/6 340/1/6
f 338/1/6 336/1/6 341/1/6
f 340/2/6 338/2/6 341/2/6
f 341/1/6 336/1/6 342/1/6
f 343/1/6 344/1/6 347/1/6
f 344/2/6 345/2/6 347/2/6
f 345/1/6 346/1/6 348/1/6
f 347/2/6 345/2/6 348/2/6
f 348/1/6 346/1/6 349/1/6
f 343/1/6 347/1/6 350/1/6
f 350/1/6 347/1/6 351/1/6
f 352/2/6 353/2/6 356/2/6
f 356/2/6 353/2/6 357/2/6
f 355/1/6 356/1/6 357/1/6
f 353/1/6 354/1/6 358/1/6
f 357/2/6 353/2/6 358/2/6
f 355/1/6 357/1/6 359/1/6
f 357/1/6 358/1/6 359/1/6
f 359/1/6 358/1/6 360/1/6
f 358/1/6 354/1/6 361/1/6
f 360/1/6 358/1/6 361/1/6
f 361/1/6 354/1/6 362/1/6
f 360/1/6 361/1/6 363/1/6
f 363/1/6 361/1/6 364/1/6
f 364/1/6 361/1/6 365/1/6
f 365/1/6 361/1/6 366/1/6
f 364/1/6 365/1/6 367/1/6
f 367/1/6 365/1/6 368/1/6
