# MagicaVoxel @ Ephtracy

# group
o 

# material
mtllib Melondeawapatitas.mtl
usemtl palette

# normals
vn -1 0 0
vn 1 0 0
vn 0 0 1
vn 0 0 -1
vn 0 -1 0
vn 0 1 0

# texcoords
vt 0.541016 0.5
vt 0.583984 0.5
vt 0.958984 0.5

# verts
v -0.4 0 0.5
v -0.4 0 -0.1
v -0.4 0.1 0.5
v -0.4 0.1 0.4
v -0.4 0.2 0.4
v -0.4 0.2 0.1
v -0.4 0.2 0
v -0.4 0.2 -0.1
v -0.4 0.3 0.1
v -0.4 0.3 0
v -0.4 0.4 0.1
v -0.4 0.4 0
v -0.4 0.5 0.1
v -0.4 0.5 0
v -0.3 0.1 0.5
v -0.3 0.1 0.4
v -0.3 0.2 0.5
v -0.3 0.2 0.4
v -0.3 0.2 0.2
v -0.3 0.2 0.1
v -0.3 0.2 0
v -0.3 0.2 -0.1
v -0.3 0.3 0.2
v -0.3 0.3 0.1
v -0.3 0.3 0
v -0.3 0.3 -0.1
v -0.3 0.4 0.2
v -0.3 0.4 0.1
v -0.3 0.4 0
v -0.3 0.4 -0.1
v -0.3 0.5 0.2
v -0.3 0.5 0.1
v -0.3 0.5 0
v -0.3 0.5 -0.1
v 0.1 0 0.5
v 0.1 0 -0.1
v 0.1 0.1 0.5
v 0.1 0.1 0.4
v 0.1 0.2 0.4
v 0.1 0.2 0.1
v 0.1 0.2 0
v 0.1 0.2 -0.1
v 0.1 0.3 0.1
v 0.1 0.3 0
v 0.1 0.4 0.1
v 0.1 0.4 0
v 0.1 0.5 0.1
v 0.1 0.5 0
v 0.2 0.1 0.5
v 0.2 0.1 0.4
v 0.2 0.2 0.5
v 0.2 0.2 0.4
v 0.2 0.2 0.2
v 0.2 0.2 0.1
v 0.2 0.2 0
v 0.2 0.2 -0.1
v 0.2 0.3 0.2
v 0.2 0.3 0.1
v 0.2 0.3 0
v 0.2 0.3 -0.1
v 0.2 0.4 0.2
v 0.2 0.4 0.1
v 0.2 0.4 0
v 0.2 0.4 -0.1
v 0.2 0.5 0.2
v 0.2 0.5 0.1
v 0.2 0.5 0
v 0.2 0.5 -0.1
v -0.2 0.1 0.5
v -0.2 0.1 0.4
v -0.2 0.2 0.5
v -0.2 0.2 0.4
v -0.2 0.2 0.2
v -0.2 0.2 0.1
v -0.2 0.2 0
v -0.2 0.2 -0.1
v -0.2 0.3 0.2
v -0.2 0.3 0.1
v -0.2 0.3 0
v -0.2 0.3 -0.1
v -0.2 0.4 0.2
v -0.2 0.4 0.1
v -0.2 0.4 0
v -0.2 0.4 -0.1
v -0.2 0.5 0.2
v -0.2 0.5 0.1
v -0.2 0.5 0
v -0.2 0.5 -0.1
v -0.1 0 0.5
v -0.1 0 -0.1
v -0.1 0.1 0.5
v -0.1 0.1 0.4
v -0.1 0.2 0.4
v -0.1 0.2 0.1
v -0.1 0.2 0
v -0.1 0.2 -0.1
v -0.1 0.3 0.1
v -0.1 0.3 0
v -0.1 0.4 0.1
v -0.1 0.4 0
v -0.1 0.5 0.1
v -0.1 0.5 0
v 0.3 0.1 0.5
v 0.3 0.1 0.4
v 0.3 0.2 0.5
v 0.3 0.2 0.4
v 0.3 0.2 0.2
v 0.3 0.2 0.1
v 0.3 0.2 0
v 0.3 0.2 -0.1
v 0.3 0.3 0.2
v 0.3 0.3 0.1
v 0.3 0.3 0
v 0.3 0.3 -0.1
v 0.3 0.4 0.2
v 0.3 0.4 0.1
v 0.3 0.4 0
v 0.3 0.4 -0.1
v 0.3 0.5 0.2
v 0.3 0.5 0.1
v 0.3 0.5 0
v 0.3 0.5 -0.1
v 0.4 0 0.5
v 0.4 0 -0.1
v 0.4 0.1 0.5
v 0.4 0.1 0.4
v 0.4 0.2 0.4
v 0.4 0.2 0.1
v 0.4 0.2 0
v 0.4 0.2 -0.1
v 0.4 0.3 0.1
v 0.4 0.3 0
v 0.4 0.4 0.1
v 0.4 0.4 0
v 0.4 0.5 0.1
v 0.4 0.5 0
v -0.4 0 0.5
v -0.4 0.1 0.5
v -0.3 0.1 0.5
v -0.3 0.2 0.5
v -0.2 0.1 0.5
v -0.2 0.2 0.5
v -0.1 0 0.5
v -0.1 0.1 0.5
v 0.1 0 0.5
v 0.1 0.1 0.5
v 0.2 0.1 0.5
v 0.2 0.2 0.5
v 0.3 0.1 0.5
v 0.3 0.2 0.5
v 0.4 0 0.5
v 0.4 0.1 0.5
v -0.4 0.1 0.4
v -0.4 0.2 0.4
v -0.3 0.1 0.4
v -0.3 0.2 0.4
v -0.2 0.1 0.4
v -0.2 0.2 0.4
v -0.1 0.1 0.4
v -0.1 0.2 0.4
v 0.1 0.1 0.4
v 0.1 0.2 0.4
v 0.2 0.1 0.4
v 0.2 0.2 0.4
v 0.3 0.1 0.4
v 0.3 0.2 0.4
v 0.4 0.1 0.4
v 0.4 0.2 0.4
v -0.3 0.2 0.2
v -0.3 0.3 0.2
v -0.3 0.4 0.2
v -0.3 0.5 0.2
v -0.2 0.2 0.2
v -0.2 0.3 0.2
v -0.2 0.4 0.2
v -0.2 0.5 0.2
v 0.2 0.2 0.2
v 0.2 0.3 0.2
v 0.2 0.4 0.2
v 0.2 0.5 0.2
v 0.3 0.2 0.2
v 0.3 0.3 0.2
v 0.3 0.4 0.2
v 0.3 0.5 0.2
v -0.4 0.2 0.1
v -0.4 0.3 0.1
v -0.4 0.4 0.1
v -0.4 0.5 0.1
v -0.3 0.2 0.1
v -0.3 0.3 0.1
v -0.3 0.4 0.1
v -0.3 0.5 0.1
v -0.2 0.2 0.1
v -0.2 0.3 0.1
v -0.2 0.4 0.1
v -0.2 0.5 0.1
v -0.1 0.2 0.1
v -0.1 0.3 0.1
v -0.1 0.4 0.1
v -0.1 0.5 0.1
v 0.1 0.2 0.1
v 0.1 0.3 0.1
v 0.1 0.4 0.1
v 0.1 0.5 0.1
v 0.2 0.2 0.1
v 0.2 0.3 0.1
v 0.2 0.4 0.1
v 0.2 0.5 0.1
v 0.3 0.2 0.1
v 0.3 0.3 0.1
v 0.3 0.4 0.1
v 0.3 0.5 0.1
v 0.4 0.2 0.1
v 0.4 0.3 0.1
v 0.4 0.4 0.1
v 0.4 0.5 0.1
v -0.4 0.2 0
v -0.4 0.3 0
v -0.4 0.4 0
v -0.4 0.5 0
v -0.3 0.2 0
v -0.3 0.3 0
v -0.3 0.4 0
v -0.3 0.5 0
v -0.2 0.2 0
v -0.2 0.3 0
v -0.2 0.4 0
v -0.2 0.5 0
v -0.1 0.2 0
v -0.1 0.3 0
v -0.1 0.4 0
v -0.1 0.5 0
v 0.1 0.2 0
v 0.1 0.3 0
v 0.1 0.4 0
v 0.1 0.5 0
v 0.2 0.2 0
v 0.2 0.3 0
v 0.2 0.4 0
v 0.2 0.5 0
v 0.3 0.2 0
v 0.3 0.3 0
v 0.3 0.4 0
v 0.3 0.5 0
v 0.4 0.2 0
v 0.4 0.3 0
v 0.4 0.4 0
v 0.4 0.5 0
v -0.4 0 -0.1
v -0.4 0.2 -0.1
v -0.3 0.2 -0.1
v -0.3 0.3 -0.1
v -0.3 0.4 -0.1
v -0.3 0.5 -0.1
v -0.2 0.2 -0.1
v -0.2 0.3 -0.1
v -0.2 0.4 -0.1
v -0.2 0.5 -0.1
v -0.1 0 -0.1
v -0.1 0.2 -0.1
v 0.1 0 -0.1
v 0.1 0.2 -0.1
v 0.2 0.2 -0.1
v 0.2 0.3 -0.1
v 0.2 0.4 -0.1
v 0.2 0.5 -0.1
v 0.3 0.2 -0.1
v 0.3 0.3 -0.1
v 0.3 0.4 -0.1
v 0.3 0.5 -0.1
v 0.4 0 -0.1
v 0.4 0.2 -0.1
v -0.4 0 0.5
v -0.1 0 0.5
v 0.1 0 0.5
v 0.4 0 0.5
v -0.4 0 -0.1
v -0.1 0 -0.1
v 0.1 0 -0.1
v 0.4 0 -0.1
v -0.4 0.1 0.5
v -0.3 0.1 0.5
v -0.2 0.1 0.5
v -0.1 0.1 0.5
v 0.1 0.1 0.5
v 0.2 0.1 0.5
v 0.3 0.1 0.5
v 0.4 0.1 0.5
v -0.4 0.1 0.4
v -0.3 0.1 0.4
v -0.2 0.1 0.4
v -0.1 0.1 0.4
v 0.1 0.1 0.4
v 0.2 0.1 0.4
v 0.3 0.1 0.4
v 0.4 0.1 0.4
v -0.3 0.2 0.5
v -0.2 0.2 0.5
v 0.2 0.2 0.5
v 0.3 0.2 0.5
v -0.4 0.2 0.4
v -0.3 0.2 0.4
v -0.2 0.2 0.4
v -0.1 0.2 0.4
v 0.1 0.2 0.4
v 0.2 0.2 0.4
v 0.3 0.2 0.4
v 0.4 0.2 0.4
v -0.3 0.2 0.2
v -0.2 0.2 0.2
v 0.2 0.2 0.2
v 0.3 0.2 0.2
v -0.4 0.2 0.1
v -0.3 0.2 0.1
v -0.2 0.2 0.1
v -0.1 0.2 0.1
v 0.1 0.2 0.1
v 0.2 0.2 0.1
v 0.3 0.2 0.1
v 0.4 0.2 0.1
v -0.4 0.2 0
v -0.3 0.2 0
v -0.2 0.2 0
v -0.1 0.2 0
v 0.1 0.2 0
v 0.2 0.2 0
v 0.3 0.2 0
v 0.4 0.2 0
v -0.4 0.2 -0.1
v -0.3 0.2 -0.1
v -0.2 0.2 -0.1
v -0.1 0.2 -0.1
v 0.1 0.2 -0.1
v 0.2 0.2 -0.1
v 0.3 0.2 -0.1
v 0.4 0.2 -0.1
v -0.3 0.5 0.2
v -0.2 0.5 0.2
v 0.2 0.5 0.2
v 0.3 0.5 0.2
v -0.4 0.5 0.1
v -0.3 0.5 0.1
v -0.2 0.5 0.1
v -0.1 0.5 0.1
v 0.1 0.5 0.1
v 0.2 0.5 0.1
v 0.3 0.5 0.1
v 0.4 0.5 0.1
v -0.4 0.5 0
v -0.3 0.5 0
v -0.2 0.5 0
v -0.1 0.5 0
v 0.1 0.5 0
v 0.2 0.5 0
v 0.3 0.5 0
v 0.4 0.5 0
v -0.3 0.5 -0.1
v -0.2 0.5 -0.1
v 0.2 0.5 -0.1
v 0.3 0.5 -0.1

# faces
f 3/3/1 2/3/1 1/3/1
f 4/3/1 2/3/1 3/3/1
f 5/3/1 2/3/1 4/3/1
f 6/3/1 2/3/1 5/3/1
f 7/3/1 2/3/1 6/3/1
f 8/3/1 2/3/1 7/3/1
f 9/2/1 7/2/1 6/2/1
f 10/2/1 7/2/1 9/2/1
f 11/1/1 10/1/1 9/1/1
f 12/1/1 10/1/1 11/1/1
f 13/2/1 12/2/1 11/2/1
f 14/2/1 12/2/1 13/2/1
f 17/3/1 16/3/1 15/3/1
f 18/3/1 16/3/1 17/3/1
f 23/2/1 20/2/1 19/2/1
f 24/2/1 20/2/1 23/2/1
f 25/2/1 22/2/1 21/2/1
f 26/2/1 22/2/1 25/2/1
f 27/1/1 24/1/1 23/1/1
f 28/1/1 24/1/1 27/1/1
f 29/1/1 26/1/1 25/1/1
f 30/1/1 26/1/1 29/1/1
f 31/2/1 28/2/1 27/2/1
f 32/2/1 28/2/1 31/2/1
f 33/2/1 30/2/1 29/2/1
f 34/2/1 30/2/1 33/2/1
f 37/3/1 36/3/1 35/3/1
f 38/3/1 36/3/1 37/3/1
f 39/3/1 36/3/1 38/3/1
f 40/3/1 36/3/1 39/3/1
f 41/3/1 36/3/1 40/3/1
f 42/3/1 36/3/1 41/3/1
f 43/2/1 41/2/1 40/2/1
f 44/2/1 41/2/1 43/2/1
f 45/1/1 44/1/1 43/1/1
f 46/1/1 44/1/1 45/1/1
f 47/2/1 46/2/1 45/2/1
f 48/2/1 46/2/1 47/2/1
f 51/3/1 50/3/1 49/3/1
f 52/3/1 50/3/1 51/3/1
f 57/2/1 54/2/1 53/2/1
f 58/2/1 54/2/1 57/2/1
f 59/2/1 56/2/1 55/2/1
f 60/2/1 56/2/1 59/2/1
f 61/1/1 58/1/1 57/1/1
f 62/1/1 58/1/1 61/1/1
f 63/1/1 60/1/1 59/1/1
f 64/1/1 60/1/1 63/1/1
f 65/2/1 62/2/1 61/2/1
f 66/2/1 62/2/1 65/2/1
f 67/2/1 64/2/1 63/2/1
f 68/2/1 64/2/1 67/2/1
f 69/3/2 70/3/2 71/3/2
f 71/3/2 70/3/2 72/3/2
f 73/2/2 74/2/2 77/2/2
f 77/2/2 74/2/2 78/2/2
f 75/2/2 76/2/2 79/2/2
f 79/2/2 76/2/2 80/2/2
f 77/1/2 78/1/2 81/1/2
f 81/1/2 78/1/2 82/1/2
f 79/1/2 80/1/2 83/1/2
f 83/1/2 80/1/2 84/1/2
f 81/2/2 82/2/2 85/2/2
f 85/2/2 82/2/2 86/2/2
f 83/2/2 84/2/2 87/2/2
f 87/2/2 84/2/2 88/2/2
f 89/3/2 90/3/2 91/3/2
f 91/3/2 90/3/2 92/3/2
f 92/3/2 90/3/2 93/3/2
f 93/3/2 90/3/2 94/3/2
f 94/3/2 90/3/2 95/3/2
f 95/3/2 90/3/2 96/3/2
f 94/2/2 95/2/2 97/2/2
f 97/2/2 95/2/2 98/2/2
f 97/1/2 98/1/2 99/1/2
f 99/1/2 98/1/2 100/1/2
f 99/2/2 100/2/2 101/2/2
f 101/2/2 100/2/2 102/2/2
f 103/3/2 104/3/2 105/3/2
f 105/3/2 104/3/2 106/3/2
f 107/2/2 108/2/2 111/2/2
f 111/2/2 108/2/2 112/2/2
f 109/2/2 110/2/2 113/2/2
f 113/2/2 110/2/2 114/2/2
f 111/1/2 112/1/2 115/1/2
f 115/1/2 112/1/2 116/1/2
f 113/1/2 114/1/2 117/1/2
f 117/1/2 114/1/2 118/1/2
f 115/2/2 116/2/2 119/2/2
f 119/2/2 116/2/2 120/2/2
f 117/2/2 118/2/2 121/2/2
f 121/2/2 118/2/2 122/2/2
f 123/3/2 124/3/2 125/3/2
f 125/3/2 124/3/2 126/3/2
f 126/3/2 124/3/2 127/3/2
f 127/3/2 124/3/2 128/3/2
f 128/3/2 124/3/2 129/3/2
f 129/3/2 124/3/2 130/3/2
f 128/2/2 129/2/2 131/2/2
f 131/2/2 129/2/2 132/2/2
f 131/1/2 132/1/2 133/1/2
f 133/1/2 132/1/2 134/1/2
f 133/2/2 134/2/2 135/2/2
f 135/2/2 134/2/2 136/2/2
f 139/3/3 138/3/3 137/3/3
f 141/3/3 139/3/3 137/3/3
f 141/3/3 140/3/3 139/3/3
f 142/3/3 140/3/3 141/3/3
f 143/3/3 141/3/3 137/3/3
f 144/3/3 141/3/3 143/3/3
f 147/3/3 146/3/3 145/3/3
f 149/3/3 147/3/3 145/3/3
f 149/3/3 148/3/3 147/3/3
f 150/3/3 148/3/3 149/3/3
f 151/3/3 149/3/3 145/3/3
f 152/3/3 149/3/3 151/3/3
f 155/3/3 154/3/3 153/3/3
f 156/3/3 154/3/3 155/3/3
f 159/3/3 158/3/3 157/3/3
f 160/3/3 158/3/3 159/3/3
f 163/3/3 162/3/3 161/3/3
f 164/3/3 162/3/3 163/3/3
f 167/3/3 166/3/3 165/3/3
f 168/3/3 166/3/3 167/3/3
f 173/2/3 170/2/3 169/2/3
f 174/1/3 171/1/3 170/1/3
f 174/2/3 170/2/3 173/2/3
f 175/2/3 172/2/3 171/2/3
f 175/1/3 171/1/3 174/1/3
f 176/2/3 172/2/3 175/2/3
f 181/2/3 178/2/3 177/2/3
f 182/1/3 179/1/3 178/1/3
f 182/2/3 178/2/3 181/2/3
f 183/2/3 180/2/3 179/2/3
f 183/1/3 179/1/3 182/1/3
f 184/2/3 180/2/3 183/2/3
f 189/2/3 186/2/3 185/2/3
f 190/1/3 187/1/3 186/1/3
f 190/2/3 186/2/3 189/2/3
f 191/2/3 188/2/3 187/2/3
f 191/1/3 187/1/3 190/1/3
f 192/2/3 188/2/3 191/2/3
f 197/2/3 194/2/3 193/2/3
f 198/1/3 195/1/3 194/1/3
f 198/2/3 194/2/3 197/2/3
f 199/2/3 196/2/3 195/2/3
f 199/1/3 195/1/3 198/1/3
f 200/2/3 196/2/3 199/2/3
f 205/2/3 202/2/3 201/2/3
f 206/1/3 203/1/3 202/1/3
f 206/2/3 202/2/3 205/2/3
f 207/2/3 204/2/3 203/2/3
f 207/1/3 203/1/3 206/1/3
f 208/2/3 204/2/3 207/2/3
f 213/2/3 210/2/3 209/2/3
f 214/1/3 211/1/3 210/1/3
f 214/2/3 210/2/3 213/2/3
f 215/2/3 212/2/3 211/2/3
f 215/1/3 211/1/3 214/1/3
f 216/2/3 212/2/3 215/2/3
f 217/2/4 218/2/4 221/2/4
f 218/1/4 219/1/4 222/1/4
f 221/2/4 218/2/4 222/2/4
f 219/2/4 220/2/4 223/2/4
f 222/1/4 219/1/4 223/1/4
f 223/2/4 220/2/4 224/2/4
f 225/2/4 226/2/4 229/2/4
f 226/1/4 227/1/4 230/1/4
f 229/2/4 226/2/4 230/2/4
f 227/2/4 228/2/4 231/2/4
f 230/1/4 227/1/4 231/1/4
f 231/2/4 228/2/4 232/2/4
f 233/2/4 234/2/4 237/2/4
f 234/1/4 235/1/4 238/1/4
f 237/2/4 234/2/4 238/2/4
f 235/2/4 236/2/4 239/2/4
f 238/1/4 235/1/4 239/1/4
f 239/2/4 236/2/4 240/2/4
f 241/2/4 242/2/4 245/2/4
f 242/1/4 243/1/4 246/1/4
f 245/2/4 242/2/4 246/2/4
f 243/2/4 244/2/4 247/2/4
f 246/1/4 243/1/4 247/1/4
f 247/2/4 244/2/4 248/2/4
f 249/3/4 250/3/4 251/3/4
f 249/3/4 251/3/4 255/3/4
f 251/2/4 252/2/4 255/2/4
f 252/1/4 253/1/4 256/1/4
f 255/2/4 252/2/4 256/2/4
f 253/2/4 254/2/4 257/2/4
f 256/1/4 253/1/4 257/1/4
f 257/2/4 254/2/4 258/2/4
f 249/3/4 255/3/4 259/3/4
f 259/3/4 255/3/4 260/3/4
f 261/3/4 262/3/4 263/3/4
f 261/3/4 263/3/4 267/3/4
f 263/2/4 264/2/4 267/2/4
f 264/1/4 265/1/4 268/1/4
f 267/2/4 264/2/4 268/2/4
f 265/2/4 266/2/4 269/2/4
f 268/1/4 265/1/4 269/1/4
f 269/2/4 266/2/4 270/2/4
f 261/3/4 267/3/4 271/3/4
f 271/3/4 267/3/4 272/3/4
f 277/3/5 274/3/5 273/3/5
f 278/3/5 274/3/5 277/3/5
f 279/3/5 276/3/5 275/3/5
f 280/3/5 276/3/5 279/3/5
f 281/3/6 282/3/6 289/3/6
f 289/3/6 282/3/6 290/3/6
f 283/3/6 284/3/6 291/3/6
f 291/3/6 284/3/6 292/3/6
f 285/3/6 286/3/6 293/3/6
f 293/3/6 286/3/6 294/3/6
f 287/3/6 288/3/6 295/3/6
f 295/3/6 288/3/6 296/3/6
f 297/3/6 298/3/6 302/3/6
f 302/3/6 298/3/6 303/3/6
f 299/3/6 300/3/6 306/3/6
f 306/3/6 300/3/6 307/3/6
f 303/3/6 304/3/6 309/3/6
f 301/3/6 302/3/6 309/3/6
f 302/3/6 303/3/6 309/3/6
f 309/3/6 304/3/6 310/3/6
f 307/3/6 308/3/6 311/3/6
f 306/3/6 307/3/6 311/3/6
f 305/3/6 306/3/6 311/3/6
f 311/3/6 308/3/6 312/3/6
f 301/3/6 309/3/6 313/3/6
f 313/3/6 309/3/6 314/3/6
f 310/3/6 304/3/6 315/3/6
f 315/3/6 304/3/6 316/3/6
f 305/3/6 311/3/6 317/3/6
f 317/3/6 311/3/6 318/3/6
f 312/3/6 308/3/6 319/3/6
f 319/3/6 308/3/6 320/3/6
f 321/3/6 322/3/6 329/3/6
f 329/3/6 322/3/6 330/3/6
f 323/3/6 324/3/6 331/3/6
f 331/3/6 324/3/6 332/3/6
f 325/3/6 326/3/6 333/3/6
f 333/3/6 326/3/6 334/3/6
f 327/3/6 328/3/6 335/3/6
f 335/3/6 328/3/6 336/3/6
f 337/2/6 338/2/6 342/2/6
f 342/2/6 338/2/6 343/2/6
f 339/2/6 340/2/6 346/2/6
f 346/2/6 340/2/6 347/2/6
f 343/2/6 344/2/6 349/2/6
f 341/2/6 342/2/6 349/2/6
f 342/2/6 343/2/6 349/2/6
f 349/2/6 344/2/6 350/2/6
f 350/2/6 344/2/6 351/2/6
f 351/2/6 344/2/6 352/2/6
f 347/2/6 348/2/6 353/2/6
f 346/2/6 347/2/6 353/2/6
f 345/2/6 346/2/6 353/2/6
f 353/2/6 348/2/6 354/2/6
f 354/2/6 348/2/6 355/2/6
f 355/2/6 348/2/6 356/2/6
f 350/2/6 351/2/6 357/2/6
f 357/2/6 351/2/6 358/2/6
f 354/2/6 355/2/6 359/2/6
f 359/2/6 355/2/6 360/2/6
