# MagicaVoxel @ Ephtracy

# group
o 

# material
mtllib Melondeawabraiz.mtl
usemtl palette

# normals
vn -1 0 0
vn 1 0 0
vn 0 0 1
vn 0 0 -1
vn 0 -1 0
vn 0 1 0

# texcoords
vt 0.541016 0.5
vt 0.583984 0.5
vt 0.958984 0.5

# verts
v 0.7 0.8 0.2
v 0.7 0.8 0.1
v 0.7 0.8 -2.98023e-08
v 0.7 0.9 0.2
v 0.7 0.9 0.1
v 0.7 0.9 -2.98023e-08
v 0.7 1 0.2
v 0.7 1 0.1
v 0.7 1 -2.98023e-08
v 0.7 1.1 0.2
v 0.7 1.1 0.1
v 0.7 1.1 -2.98023e-08
v 0.9 0.9 -2.98023e-08
v 0.9 0.9 -0.1
v 0.9 1 -2.98023e-08
v 0.9 1 -0.1
v 1.1 0.8 0.2
v 1.1 0.8 0.1
v 1.1 0.8 -2.98023e-08
v 1.1 0.8 -0.1
v 1.1 0.9 0.2
v 1.1 0.9 0.1
v 1.1 0.9 -2.98023e-08
v 1.1 0.9 -0.1
v 1.1 1 0.2
v 1.1 1 0.1
v 1.1 1 -2.98023e-08
v 1.1 1 -0.1
v 1.1 1.1 0.2
v 1.1 1.1 0.1
v 1.1 1.1 -2.98023e-08
v 1.1 1.1 -0.1
v 1.3 0.8 0.3
v 1.3 0.8 0.1
v 1.3 0.8 -2.98023e-08
v 1.3 0.8 -0.1
v 1.3 0.9 0.3
v 1.3 0.9 0.2
v 1.3 0.9 0.1
v 1.3 0.9 -2.98023e-08
v 1.3 0.9 -0.1
v 1.3 1 0.2
v 1.3 1 0.1
v 1.3 1 -2.98023e-08
v 1.3 1 -0.1
v 1.3 1.1 0.2
v 1.3 1.1 0.1
v 1.3 1.1 -2.98023e-08
v 1.3 1.1 -0.1
v 0.8 0.8 0.2
v 0.8 0.8 0.1
v 0.8 0.9 0.2
v 0.8 0.9 0.1
v 0.8 1 0.2
v 0.8 1 0.1
v 0.8 1.1 0.2
v 0.8 1.1 0.1
v 1.2 0.8 0.2
v 1.2 0.8 0.1
v 1.2 0.8 -2.98023e-08
v 1.2 0.8 -0.1
v 1.2 0.9 0.2
v 1.2 0.9 0.1
v 1.2 0.9 -2.98023e-08
v 1.2 0.9 -0.1
v 1.2 1 0.2
v 1.2 1 0.1
v 1.2 1 -2.98023e-08
v 1.2 1 -0.1
v 1.2 1.1 0.2
v 1.2 1.1 0.1
v 1.2 1.1 -2.98023e-08
v 1.2 1.1 -0.1
v 1.5 0.8 0.3
v 1.5 0.8 0.2
v 1.5 0.9 0.3
v 1.5 0.9 0.2
v 1.6 0.8 0.2
v 1.6 0.8 -0.1
v 1.6 1 0.2
v 1.6 1 0.1
v 1.6 1 -2.98023e-08
v 1.6 1 -0.1
v 1.6 1.1 0.1
v 1.6 1.1 -2.98023e-08
v 1.7 1 0.2
v 1.7 1 0.1
v 1.7 1 -2.98023e-08
v 1.7 1 -0.1
v 1.7 1.1 0.2
v 1.7 1.1 0.1
v 1.7 1.1 -2.98023e-08
v 1.7 1.1 -0.1
v 1.3 0.8 0.3
v 1.3 0.9 0.3
v 1.5 0.8 0.3
v 1.5 0.9 0.3
v 0.7 0.8 0.2
v 0.7 0.9 0.2
v 0.7 1 0.2
v 0.7 1.1 0.2
v 0.8 0.8 0.2
v 0.8 0.9 0.2
v 0.8 1 0.2
v 0.8 1.1 0.2
v 0.9 0.9 0.2
v 0.9 1 0.2
v 1 0.9 0.2
v 1 1 0.2
v 1.1 0.8 0.2
v 1.1 0.9 0.2
v 1.1 1 0.2
v 1.1 1.1 0.2
v 1.2 0.8 0.2
v 1.2 0.9 0.2
v 1.2 1 0.2
v 1.2 1.1 0.2
v 1.3 0.9 0.2
v 1.3 1 0.2
v 1.3 1.1 0.2
v 1.5 0.8 0.2
v 1.5 0.9 0.2
v 1.6 0.8 0.2
v 1.6 1 0.2
v 1.7 1 0.2
v 1.7 1.1 0.2
v 0.8 0.8 0.1
v 0.8 0.9 0.1
v 0.8 1 0.1
v 0.8 1.1 0.1
v 0.9 0.8 0.1
v 0.9 0.9 0.1
v 0.9 1 0.1
v 0.9 1.1 0.1
v 1 0.8 0.1
v 1 0.9 0.1
v 1 1 0.1
v 1 1.1 0.1
v 1.1 0.8 0.1
v 1.1 0.9 0.1
v 1.1 1 0.1
v 1.1 1.1 0.1
v 1.2 0.8 0.1
v 1.2 0.9 0.1
v 1.2 1 0.1
v 1.2 1.1 0.1
v 1.3 0.8 0.1
v 1.3 0.9 0.1
v 1.3 1 0.1
v 1.3 1.1 0.1
v 1.6 1 -2.98023e-08
v 1.6 1.1 -2.98023e-08
v 1.7 1 -2.98023e-08
v 1.7 1.1 -2.98023e-08
v 1.6 1 0.1
v 1.6 1.1 0.1
v 1.7 1 0.1
v 1.7 1.1 0.1
v 0.7 0.8 -2.98023e-08
v 0.7 0.9 -2.98023e-08
v 0.7 1 -2.98023e-08
v 0.7 1.1 -2.98023e-08
v 0.8 0.9 -2.98023e-08
v 0.8 1 -2.98023e-08
v 0.9 0.8 -2.98023e-08
v 0.9 0.9 -2.98023e-08
v 0.9 1 -2.98023e-08
v 0.9 1.1 -2.98023e-08
v 1 0.8 -2.98023e-08
v 1 0.9 -2.98023e-08
v 1 1 -2.98023e-08
v 1 1.1 -2.98023e-08
v 1.1 0.8 -2.98023e-08
v 1.1 0.9 -2.98023e-08
v 1.1 1 -2.98023e-08
v 1.1 1.1 -2.98023e-08
v 1.2 0.8 -2.98023e-08
v 1.2 0.9 -2.98023e-08
v 1.2 1 -2.98023e-08
v 1.2 1.1 -2.98023e-08
v 1.3 0.8 -2.98023e-08
v 1.3 0.9 -2.98023e-08
v 1.3 1 -2.98023e-08
v 1.3 1.1 -2.98023e-08
v 0.9 0.9 -0.1
v 0.9 1 -0.1
v 1.1 0.8 -0.1
v 1.1 0.9 -0.1
v 1.1 1 -0.1
v 1.1 1.1 -0.1
v 1.2 0.8 -0.1
v 1.2 0.9 -0.1
v 1.2 1 -0.1
v 1.2 1.1 -0.1
v 1.3 0.8 -0.1
v 1.3 0.9 -0.1
v 1.3 1 -0.1
v 1.3 1.1 -0.1
v 1.6 0.8 -0.1
v 1.6 1 -0.1
v 1.7 1 -0.1
v 1.7 1.1 -0.1
v 1.3 0.8 0.3
v 1.5 0.8 0.3
v 0.7 0.8 0.2
v 0.8 0.8 0.2
v 1.1 0.8 0.2
v 1.2 0.8 0.2
v 1.5 0.8 0.2
v 1.6 0.8 0.2
v 0.7 0.8 0.1
v 0.8 0.8 0.1
v 0.9 0.8 0.1
v 1 0.8 0.1
v 1.1 0.8 0.1
v 1.2 0.8 0.1
v 1.3 0.8 0.1
v 0.7 0.8 -2.98023e-08
v 0.9 0.8 -2.98023e-08
v 1 0.8 -2.98023e-08
v 1.1 0.8 -2.98023e-08
v 1.2 0.8 -2.98023e-08
v 1.3 0.8 -2.98023e-08
v 1.1 0.8 -0.1
v 1.2 0.8 -0.1
v 1.3 0.8 -0.1
v 1.6 0.8 -0.1
v 0.8 0.9 0.2
v 0.9 0.9 0.2
v 1 0.9 0.2
v 1.1 0.9 0.2
v 1.2 0.9 0.2
v 1.3 0.9 0.2
v 0.8 0.9 0.1
v 0.9 0.9 0.1
v 1 0.9 0.1
v 1.1 0.9 0.1
v 1.2 0.9 0.1
v 1.3 0.9 0.1
v 0.9 0.9 -2.98023e-08
v 1 0.9 -2.98023e-08
v 1.1 0.9 -2.98023e-08
v 1.2 0.9 -2.98023e-08
v 1.3 0.9 -2.98023e-08
v 0.9 0.9 -0.1
v 1.1 0.9 -0.1
v 1.2 0.9 -0.1
v 1.3 0.9 -0.1
v 1.6 1 0.2
v 1.7 1 0.2
v 1.6 1 0.1
v 1.7 1 0.1
v 1.6 1 -2.98023e-08
v 1.7 1 -2.98023e-08
v 1.6 1 -0.1
v 1.7 1 -0.1
v 1.3 0.9 0.3
v 1.5 0.9 0.3
v 1.3 0.9 0.2
v 1.5 0.9 0.2
v 0.8 1 0.2
v 0.9 1 0.2
v 1 1 0.2
v 1.1 1 0.2
v 1.2 1 0.2
v 1.3 1 0.2
v 0.8 1 0.1
v 0.9 1 0.1
v 1 1 0.1
v 1.1 1 0.1
v 1.2 1 0.1
v 1.3 1 0.1
v 0.9 1 -2.98023e-08
v 1 1 -2.98023e-08
v 1.1 1 -2.98023e-08
v 1.2 1 -2.98023e-08
v 1.3 1 -2.98023e-08
v 0.9 1 -0.1
v 1.1 1 -0.1
v 1.2 1 -0.1
v 1.3 1 -0.1
v 0.7 1.1 0.2
v 0.8 1.1 0.2
v 1.1 1.1 0.2
v 1.2 1.1 0.2
v 1.3 1.1 0.2
v 1.7 1.1 0.2
v 0.7 1.1 0.1
v 0.8 1.1 0.1
v 0.9 1.1 0.1
v 1 1.1 0.1
v 1.1 1.1 0.1
v 1.2 1.1 0.1
v 1.3 1.1 0.1
v 1.6 1.1 0.1
v 1.7 1.1 0.1
v 0.7 1.1 -2.98023e-08
v 0.9 1.1 -2.98023e-08
v 1 1.1 -2.98023e-08
v 1.1 1.1 -2.98023e-08
v 1.2 1.1 -2.98023e-08
v 1.3 1.1 -2.98023e-08
v 1.6 1.1 -2.98023e-08
v 1.7 1.1 -2.98023e-08
v 1.1 1.1 -0.1
v 1.2 1.1 -0.1
v 1.3 1.1 -0.1
v 1.7 1.1 -0.1

# faces
f 4/1/1 2/1/1 1/1/1
f 5/2/1 3/2/1 2/2/1
f 5/1/1 2/1/1 4/1/1
f 6/2/1 3/2/1 5/2/1
f 7/2/1 5/2/1 4/2/1
f 8/1/1 6/1/1 5/1/1
f 8/2/1 5/2/1 7/2/1
f 9/1/1 6/1/1 8/1/1
f 10/1/1 8/1/1 7/1/1
f 11/2/1 9/2/1 8/2/1
f 11/1/1 8/1/1 10/1/1
f 12/2/1 9/2/1 11/2/1
f 15/2/1 14/2/1 13/2/1
f 16/2/1 14/2/1 15/2/1
f 21/3/1 18/3/1 17/3/1
f 22/3/1 18/3/1 21/3/1
f 23/3/1 20/3/1 19/3/1
f 24/3/1 20/3/1 23/3/1
f 29/3/1 26/3/1 25/3/1
f 30/3/1 26/3/1 29/3/1
f 31/3/1 28/3/1 27/3/1
f 32/3/1 28/3/1 31/3/1
f 37/3/1 34/3/1 33/3/1
f 38/3/1 34/3/1 37/3/1
f 39/3/1 34/3/1 38/3/1
f 40/3/1 36/3/1 35/3/1
f 41/3/1 36/3/1 40/3/1
f 46/3/1 43/3/1 42/3/1
f 47/3/1 43/3/1 46/3/1
f 48/3/1 45/3/1 44/3/1
f 49/3/1 45/3/1 48/3/1
f 50/1/2 51/1/2 52/1/2
f 52/1/2 51/1/2 53/1/2
f 54/1/2 55/1/2 56/1/2
f 56/1/2 55/1/2 57/1/2
f 58/3/2 59/3/2 62/3/2
f 62/3/2 59/3/2 63/3/2
f 60/3/2 61/3/2 64/3/2
f 64/3/2 61/3/2 65/3/2
f 66/3/2 67/3/2 70/3/2
f 70/3/2 67/3/2 71/3/2
f 68/3/2 69/3/2 72/3/2
f 72/3/2 69/3/2 73/3/2
f 74/3/2 75/3/2 76/3/2
f 76/3/2 75/3/2 77/3/2
f 78/3/2 79/3/2 80/3/2
f 80/3/2 79/3/2 81/3/2
f 81/3/2 79/3/2 82/3/2
f 82/3/2 79/3/2 83/3/2
f 81/3/2 82/3/2 84/3/2
f 84/3/2 82/3/2 85/3/2
f 86/3/2 87/3/2 90/3/2
f 90/3/2 87/3/2 91/3/2
f 88/3/2 89/3/2 92/3/2
f 92/3/2 89/3/2 93/3/2
f 96/3/3 95/3/3 94/3/3
f 97/3/3 95/3/3 96/3/3
f 102/1/3 99/1/3 98/1/3
f 103/2/3 100/2/3 99/2/3
f 103/1/3 99/1/3 102/1/3
f 104/1/3 101/1/3 100/1/3
f 104/2/3 100/2/3 103/2/3
f 105/1/3 101/1/3 104/1/3
f 106/2/3 104/2/3 103/2/3
f 107/2/3 104/2/3 106/2/3
f 108/1/3 107/1/3 106/1/3
f 109/1/3 107/1/3 108/1/3
f 111/2/3 109/2/3 108/2/3
f 112/2/3 109/2/3 111/2/3
f 114/3/3 112/3/3 111/3/3
f 114/3/3 113/3/3 112/3/3
f 114/3/3 111/3/3 110/3/3
f 115/3/3 113/3/3 114/3/3
f 116/3/3 113/3/3 115/3/3
f 117/3/3 113/3/3 116/3/3
f 118/3/3 116/3/3 115/3/3
f 119/3/3 116/3/3 118/3/3
f 122/3/3 119/3/3 118/3/3
f 122/3/3 120/3/3 119/3/3
f 123/3/3 122/3/3 121/3/3
f 124/3/3 120/3/3 122/3/3
f 124/3/3 122/3/3 123/3/3
f 125/3/3 120/3/3 124/3/3
f 126/3/3 120/3/3 125/3/3
f 131/2/3 128/2/3 127/2/3
f 132/2/3 128/2/3 131/2/3
f 133/2/3 130/2/3 129/2/3
f 134/2/3 130/2/3 133/2/3
f 135/1/3 132/1/3 131/1/3
f 136/1/3 132/1/3 135/1/3
f 137/1/3 134/1/3 133/1/3
f 138/1/3 134/1/3 137/1/3
f 139/2/3 136/2/3 135/2/3
f 140/2/3 136/2/3 139/2/3
f 141/2/3 138/2/3 137/2/3
f 142/2/3 138/2/3 141/2/3
f 147/3/3 144/3/3 143/3/3
f 148/3/3 144/3/3 147/3/3
f 149/3/3 146/3/3 145/3/3
f 150/3/3 146/3/3 149/3/3
f 153/3/3 152/3/3 151/3/3
f 154/3/3 152/3/3 153/3/3
f 155/3/4 156/3/4 157/3/4
f 157/3/4 156/3/4 158/3/4
f 159/2/4 160/2/4 163/2/4
f 160/1/4 161/1/4 163/1/4
f 161/2/4 162/2/4 164/2/4
f 163/1/4 161/1/4 164/1/4
f 159/2/4 163/2/4 165/2/4
f 163/2/4 164/2/4 165/2/4
f 165/2/4 164/2/4 166/2/4
f 164/2/4 162/2/4 167/2/4
f 166/2/4 164/2/4 167/2/4
f 167/2/4 162/2/4 168/2/4
f 165/1/4 166/1/4 169/1/4
f 169/1/4 166/1/4 170/1/4
f 167/1/4 168/1/4 171/1/4
f 171/1/4 168/1/4 172/1/4
f 169/2/4 170/2/4 173/2/4
f 173/2/4 170/2/4 174/2/4
f 171/2/4 172/2/4 175/2/4
f 175/2/4 172/2/4 176/2/4
f 177/3/4 178/3/4 181/3/4
f 181/3/4 178/3/4 182/3/4
f 179/3/4 180/3/4 183/3/4
f 183/3/4 180/3/4 184/3/4
f 185/2/4 186/2/4 188/2/4
f 188/2/4 186/2/4 189/2/4
f 187/3/4 188/3/4 191/3/4
f 189/3/4 190/3/4 191/3/4
f 188/3/4 189/3/4 191/3/4
f 191/3/4 190/3/4 192/3/4
f 192/3/4 190/3/4 193/3/4
f 193/3/4 190/3/4 194/3/4
f 192/3/4 193/3/4 196/3/4
f 196/3/4 193/3/4 197/3/4
f 195/3/4 196/3/4 199/3/4
f 197/3/4 198/3/4 199/3/4
f 196/3/4 197/3/4 199/3/4
f 199/3/4 198/3/4 200/3/4
f 200/3/4 198/3/4 201/3/4
f 201/3/4 198/3/4 202/3/4
f 209/3/5 204/3/5 203/3/5
f 211/1/5 206/1/5 205/1/5
f 212/1/5 206/1/5 211/1/5
f 215/3/5 208/3/5 207/3/5
f 216/3/5 208/3/5 215/3/5
f 217/3/5 210/3/5 209/3/5
f 217/3/5 209/3/5 203/3/5
f 218/2/5 212/2/5 211/2/5
f 218/2/5 213/2/5 212/2/5
f 219/1/5 214/1/5 213/1/5
f 219/2/5 213/2/5 218/2/5
f 220/2/5 215/2/5 214/2/5
f 220/1/5 214/1/5 219/1/5
f 221/3/5 216/3/5 215/3/5
f 221/2/5 215/2/5 220/2/5
f 221/3/5 217/3/5 216/3/5
f 222/3/5 217/3/5 221/3/5
f 223/3/5 210/3/5 217/3/5
f 223/3/5 217/3/5 222/3/5
f 224/3/5 222/3/5 221/3/5
f 225/3/5 222/3/5 224/3/5
f 226/3/5 210/3/5 223/3/5
f 227/3/5 210/3/5 226/3/5
f 234/2/5 229/2/5 228/2/5
f 235/1/5 230/1/5 229/1/5
f 235/2/5 229/2/5 234/2/5
f 236/2/5 231/2/5 230/2/5
f 236/1/5 230/1/5 235/1/5
f 237/2/5 231/2/5 236/2/5
f 238/3/5 233/3/5 232/3/5
f 239/3/5 233/3/5 238/3/5
f 245/2/5 241/2/5 240/2/5
f 245/2/5 242/2/5 241/2/5
f 246/2/5 242/2/5 245/2/5
f 247/3/5 244/3/5 243/3/5
f 248/3/5 244/3/5 247/3/5
f 251/3/5 250/3/5 249/3/5
f 252/3/5 250/3/5 251/3/5
f 255/3/5 254/3/5 253/3/5
f 256/3/5 254/3/5 255/3/5
f 257/3/6 258/3/6 259/3/6
f 259/3/6 258/3/6 260/3/6
f 261/2/6 262/2/6 267/2/6
f 262/1/6 263/1/6 268/1/6
f 267/2/6 262/2/6 268/2/6
f 263/2/6 264/2/6 269/2/6
f 268/1/6 263/1/6 269/1/6
f 269/2/6 264/2/6 270/2/6
f 265/3/6 266/3/6 271/3/6
f 271/3/6 266/3/6 272/3/6
f 273/2/6 274/2/6 278/2/6
f 274/2/6 275/2/6 278/2/6
f 278/2/6 275/2/6 279/2/6
f 276/3/6 277/3/6 280/3/6
f 280/3/6 277/3/6 281/3/6
f 282/1/6 283/1/6 288/1/6
f 288/1/6 283/1/6 289/1/6
f 284/3/6 285/3/6 292/3/6
f 292/3/6 285/3/6 293/3/6
f 286/3/6 287/3/6 294/3/6
f 294/3/6 287/3/6 295/3/6
f 295/3/6 287/3/6 296/3/6
f 288/2/6 289/2/6 297/2/6
f 289/2/6 290/2/6 297/2/6
f 290/1/6 291/1/6 298/1/6
f 297/2/6 290/2/6 298/2/6
f 291/2/6 292/2/6 299/2/6
f 298/1/6 291/1/6 299/1/6
f 292/3/6 293/3/6 300/3/6
f 299/2/6 292/2/6 300/2/6
f 294/3/6 295/3/6 300/3/6
f 293/3/6 294/3/6 300/3/6
f 300/3/6 295/3/6 301/3/6
f 301/3/6 295/3/6 302/3/6
f 302/3/6 295/3/6 303/3/6
f 300/3/6 301/3/6 305/3/6
f 305/3/6 301/3/6 306/3/6
f 303/3/6 304/3/6 307/3/6
f 302/3/6 303/3/6 307/3/6
f 307/3/6 304/3/6 308/3/6
